<svg xmlns="http://www.w3.org/2000/svg" viewBox="0 0 450 114" fill="none" role="img" aria-label="Boardy">
  <title>Boardy</title>
  <g transform="translate(0 7)">
    <rect width="100" height="100" rx="18" fill="#1A1916"></rect>
    <circle cx="21.75" cy="21.75" r="7.75" fill="#D97757"></circle>
    <rect x="38" y="15.5" width="48" height="7" rx="3.5" fill="#F6F5F0" fill-opacity="0.95"></rect>
    <rect x="38" y="41.5" width="37.44" height="7" rx="3.5" fill="#F6F5F0" fill-opacity="0.45"></rect>
    <rect x="38" y="59.5" width="27.84" height="7" rx="3.5" fill="#F6F5F0" fill-opacity="0.45"></rect>
  </g>
  <g fill="#1A1916">
    <path d="M166.768 83L134.102 83L134.102 10.246L164.424 10.246Q172.578 10.246 178.096 12.565Q183.613 14.885 186.396 19.035Q189.180 23.186 189.180 28.654L189.180 28.654Q189.180 32.805 187.446 36.052Q185.713 39.299 182.661 41.447Q179.609 43.596 175.605 44.426L175.605 44.426L175.605 45.207Q180 45.354 183.735 47.526Q187.471 49.699 189.741 53.557Q192.012 57.414 192.012 62.639L192.012 62.639Q192.012 68.498 189.058 73.112Q186.104 77.727 180.464 80.363Q174.824 83 166.768 83L166.768 83ZM151.631 51.457L151.631 68.840L162.568 68.840Q168.232 68.840 170.967 66.643Q173.701 64.445 173.701 60.637L173.701 60.637Q173.701 57.805 172.383 55.754Q171.064 53.703 168.647 52.580Q166.230 51.457 162.910 51.457L162.910 51.457L151.631 51.457ZM151.631 24.211L151.631 40.178L161.396 40.178Q164.277 40.178 166.499 39.201Q168.721 38.225 169.990 36.442Q171.260 34.660 171.260 32.072L171.260 32.072Q171.260 28.459 168.672 26.335Q166.084 24.211 161.689 24.211L161.689 24.211L151.631 24.211Z"></path>
    <path d="M269.154 83.977L269.154 83.977Q263.930 83.977 259.853 82.194Q255.775 80.412 253.480 76.848Q251.186 73.283 251.186 67.863L251.186 67.863Q251.186 63.322 252.772 60.197Q254.359 57.072 257.167 55.119Q259.975 53.166 263.637 52.116Q267.299 51.066 271.449 50.773L271.449 50.773Q276.088 50.334 278.920 49.895Q281.752 49.455 283.046 48.527Q284.340 47.600 284.340 45.939L284.340 45.939L284.340 45.695Q284.340 43.010 282.484 41.496Q280.629 39.982 277.406 39.982L277.406 39.982Q273.939 39.982 271.864 41.496Q269.789 43.010 269.203 45.598L269.203 45.598L253.236 45.061Q253.920 40.080 256.874 36.149Q259.828 32.219 265.028 29.973Q270.229 27.727 277.602 27.727L277.602 27.727Q282.777 27.727 287.172 28.947Q291.566 30.168 294.838 32.512Q298.109 34.855 299.916 38.225Q301.723 41.594 301.723 45.891L301.723 45.891L301.723 83L285.365 83L285.365 75.334L284.975 75.334Q283.461 78.166 281.215 80.070Q278.969 81.975 275.966 82.976Q272.963 83.977 269.154 83.977ZM274.477 72.551L274.477 72.551Q277.260 72.551 279.530 71.403Q281.801 70.256 283.144 68.254Q284.486 66.252 284.486 63.566L284.486 63.566L284.486 58.439Q283.754 58.830 282.704 59.147Q281.654 59.465 280.385 59.758Q279.115 60.051 277.821 60.246Q276.527 60.441 275.355 60.637L275.355 60.637Q272.865 60.979 271.132 61.833Q269.398 62.688 268.520 63.957Q267.641 65.227 267.641 67.033L267.641 67.033Q267.641 69.719 269.545 71.135Q271.449 72.551 274.477 72.551Z"></path>
    <path d="M322.809 83L305.426 83L305.426 28.410L322.271 28.410L322.271 38.420L322.857 38.420Q324.322 32.951 327.716 30.339Q331.109 27.727 335.553 27.727L335.553 27.727Q336.773 27.727 338.067 27.873Q339.361 28.020 340.436 28.361L340.436 28.361L340.436 43.400Q339.166 42.961 337.164 42.741Q335.162 42.521 333.600 42.521L333.600 42.521Q330.523 42.521 328.058 43.889Q325.592 45.256 324.200 47.697Q322.809 50.139 322.809 53.361L322.809 53.361L322.809 83Z"></path>
    <path d="M359.959 83.781L359.959 83.781Q353.953 83.781 348.997 80.656Q344.041 77.531 341.111 71.281Q338.182 65.031 338.182 55.754L338.182 55.754Q338.182 46.135 341.233 39.934Q344.285 33.732 349.217 30.729Q354.148 27.727 359.861 27.727L359.861 27.727Q364.158 27.727 367.210 29.191Q370.262 30.656 372.264 32.976Q374.266 35.295 375.291 37.785L375.291 37.785L375.633 37.785L375.633 10.246L393.016 10.246L393.016 83L375.877 83L375.877 74.113L375.291 74.113Q374.168 76.652 372.166 78.850Q370.164 81.047 367.137 82.414Q364.109 83.781 359.959 83.781ZM365.965 70.256L365.965 70.256Q369.139 70.256 371.385 68.449Q373.631 66.643 374.852 63.396Q376.072 60.148 376.072 55.754L376.072 55.754Q376.072 51.262 374.876 48.015Q373.680 44.768 371.409 43.010Q369.139 41.252 365.965 41.252L365.965 41.252Q362.791 41.252 360.545 43.059Q358.299 44.865 357.151 48.112Q356.004 51.359 356.004 55.754L356.004 55.754Q356.004 60.100 357.176 63.371Q358.348 66.643 360.569 68.449Q362.791 70.256 365.965 70.256Z"></path>
    <path d="M407.363 103.410L407.363 103.410Q404.238 103.459 401.431 102.971Q398.623 102.482 396.670 101.750L396.670 101.750L400.527 89.104L400.918 89.201Q404.580 90.324 407.241 89.982Q409.902 89.641 411.074 86.662L411.074 86.662L411.709 85.002L392.373 28.410L410.488 28.410L420.547 67.375L421.133 67.375L431.338 28.410L449.648 28.410L429.043 88.273Q427.578 92.717 424.868 96.135Q422.158 99.553 417.886 101.481Q413.613 103.410 407.363 103.410Z"></path>
  </g>
  <circle cx="221.623046875" cy="42.5" r="30" fill="#D97757"></circle>
</svg>